<svg xmlns="http://www.w3.org/2000/svg" xmlns:xlink="http://www.w3.org/1999/xlink" width="540" zoomAndPan="magnify" viewBox="0 0 404.88 460.499986" height="614" preserveAspectRatio="xMidYMid meet" version="1.0"><defs><g/><clipPath id="6fbdcb893b"><path d="M 0.160156 0 L 404.601562 0 L 404.601562 460 L 0.160156 460 Z M 0.160156 0 " clip-rule="nonzero"/></clipPath><clipPath id="4ecaea742a"><path d="M 0.136719 0 L 366.167969 0 L 366.167969 440.582031 L 0.136719 440.582031 Z M 0.136719 0 " clip-rule="nonzero"/></clipPath><clipPath id="f741c11041"><path d="M 0.136719 0 L 366.167969 0 L 366.167969 366 L 0.136719 366 Z M 0.136719 0 " clip-rule="nonzero"/></clipPath><clipPath id="7a4225ad65"><path d="M 141.296875 84 L 351.515625 84 L 351.515625 294.179688 L 141.296875 294.179688 Z M 141.296875 84 " clip-rule="nonzero"/></clipPath><clipPath id="619339cc56"><path d="M 259.476562 28.027344 L 315.222656 28.027344 L 315.222656 83.773438 L 259.476562 83.773438 Z M 259.476562 28.027344 " clip-rule="nonzero"/></clipPath><clipPath id="a756764b87"><path d="M 295.761719 83.964844 L 351.503906 83.964844 L 351.503906 139.710938 L 295.761719 139.710938 Z M 295.761719 83.964844 " clip-rule="nonzero"/></clipPath><clipPath id="01b815a7a4"><rect x="0" width="368" y="0" height="442"/></clipPath></defs><g clip-path="url(#6fbdcb893b)"><path fill="#ffffff" d="M 0.160156 0 L 404.71875 0 L 404.71875 460 L 0.160156 460 Z M 0.160156 0 " fill-opacity="1" fill-rule="nonzero"/></g><g transform="matrix(1, 0, 0, 1, 19, 0)"><g clip-path="url(#01b815a7a4)"><g clip-path="url(#4ecaea742a)"><path fill="#ffffff" d="M 0.324219 440.65625 C 0.324219 420.8125 0.136719 45.632812 0.136719 12.808594 C 0.136719 5.019531 2.734375 1.125 10.335938 0.753906 C 13.675781 0.566406 242.15625 0.199219 353.0625 0.0117188 C 365.859375 0.0117188 366.042969 2.792969 366.042969 12.621094 C 365.859375 151.34375 365.671875 289.878906 365.488281 428.601562 C 365.488281 440.65625 365.488281 440.84375 353.0625 440.84375 C 239.003906 440.65625 5.332031 440.65625 0.324219 440.65625 Z M 0.324219 440.65625 " fill-opacity="1" fill-rule="nonzero"/></g><g clip-path="url(#f741c11041)"><path fill="#029053" d="M 0.136719 365.90625 L 366.042969 365.90625 L 366.042969 0 L 0.136719 0 L 0.136719 144.578125 L 124.972656 19.660156 L 201.808594 19.660156 L 38.554688 182.992188 L 201.808594 346.246094 L 124.972656 346.246094 L 0.136719 221.410156 Z M 0.136719 365.90625 " fill-opacity="1" fill-rule="evenodd"/></g><g clip-path="url(#7a4225ad65)"><path fill="#ffffff" d="M 303.136719 186.417969 L 303.136719 189.113281 C 303.136719 220.351562 277.726562 245.761719 246.496094 245.761719 C 215.28125 245.761719 189.878906 220.375 189.855469 189.164062 C 189.878906 157.949219 215.28125 132.5625 246.496094 132.5625 L 249.191406 132.5625 L 249.191406 84.015625 L 246.496094 84.015625 C 188.546875 84.015625 141.347656 131.164062 141.296875 189.210938 C 141.347656 247.160156 188.546875 294.308594 246.496094 294.308594 C 304.503906 294.308594 351.691406 247.121094 351.691406 189.113281 L 351.691406 186.417969 L 303.136719 186.417969 " fill-opacity="1" fill-rule="nonzero"/></g><g clip-path="url(#619339cc56)"><path fill="#ffffff" d="M 315.410156 55.996094 C 315.410156 56.910156 315.367188 57.824219 315.277344 58.738281 C 315.1875 59.648438 315.050781 60.554688 314.875 61.453125 C 314.695312 62.351562 314.472656 63.238281 314.207031 64.113281 C 313.941406 64.988281 313.632812 65.851562 313.28125 66.699219 C 312.929688 67.542969 312.539062 68.371094 312.109375 69.179688 C 311.675781 69.988281 311.207031 70.769531 310.699219 71.53125 C 310.1875 72.292969 309.644531 73.027344 309.0625 73.738281 C 308.480469 74.445312 307.867188 75.121094 307.21875 75.769531 C 306.570312 76.417969 305.894531 77.03125 305.1875 77.613281 C 304.476562 78.195312 303.742188 78.738281 302.980469 79.25 C 302.21875 79.757812 301.433594 80.226562 300.628906 80.660156 C 299.820312 81.089844 298.992188 81.484375 298.144531 81.832031 C 297.300781 82.183594 296.4375 82.492188 295.5625 82.757812 C 294.6875 83.023438 293.796875 83.246094 292.898438 83.425781 C 292 83.601562 291.097656 83.738281 290.183594 83.828125 C 289.273438 83.917969 288.359375 83.960938 287.445312 83.960938 C 286.527344 83.960938 285.613281 83.917969 284.703125 83.828125 C 283.792969 83.738281 282.886719 83.601562 281.988281 83.425781 C 281.089844 83.246094 280.203125 83.023438 279.324219 82.757812 C 278.449219 82.492188 277.585938 82.183594 276.742188 81.832031 C 275.894531 81.484375 275.070312 81.089844 274.261719 80.660156 C 273.453125 80.226562 272.667969 79.757812 271.90625 79.25 C 271.144531 78.738281 270.410156 78.195312 269.703125 77.613281 C 268.996094 77.03125 268.316406 76.417969 267.667969 75.769531 C 267.019531 75.121094 266.40625 74.445312 265.824219 73.738281 C 265.246094 73.027344 264.699219 72.292969 264.191406 71.53125 C 263.683594 70.769531 263.210938 69.988281 262.78125 69.179688 C 262.347656 68.371094 261.957031 67.542969 261.605469 66.699219 C 261.253906 65.851562 260.949219 64.988281 260.683594 64.113281 C 260.414062 63.238281 260.195312 62.351562 260.015625 61.453125 C 259.835938 60.554688 259.703125 59.648438 259.613281 58.738281 C 259.523438 57.824219 259.476562 56.910156 259.476562 55.996094 C 259.476562 55.078125 259.523438 54.164062 259.613281 53.253906 C 259.703125 52.34375 259.835938 51.4375 260.015625 50.539062 C 260.195312 49.640625 260.414062 48.753906 260.683594 47.878906 C 260.949219 47 261.253906 46.140625 261.605469 45.292969 C 261.957031 44.445312 262.347656 43.621094 262.78125 42.8125 C 263.210938 42.003906 263.683594 41.21875 264.191406 40.457031 C 264.699219 39.695312 265.246094 38.960938 265.824219 38.253906 C 266.40625 37.546875 267.019531 36.867188 267.667969 36.21875 C 268.316406 35.574219 268.996094 34.957031 269.703125 34.375 C 270.410156 33.796875 271.144531 33.25 271.90625 32.742188 C 272.667969 32.234375 273.453125 31.761719 274.261719 31.332031 C 275.070312 30.898438 275.894531 30.507812 276.742188 30.15625 C 277.585938 29.808594 278.449219 29.5 279.324219 29.234375 C 280.203125 28.96875 281.089844 28.746094 281.988281 28.566406 C 282.886719 28.386719 283.792969 28.253906 284.703125 28.164062 C 285.613281 28.074219 286.527344 28.027344 287.445312 28.027344 C 288.359375 28.027344 289.273438 28.074219 290.183594 28.164062 C 291.097656 28.253906 292 28.386719 292.898438 28.566406 C 293.796875 28.746094 294.6875 28.96875 295.5625 29.234375 C 296.4375 29.5 297.300781 29.808594 298.144531 30.15625 C 298.992188 30.507812 299.820312 30.898438 300.628906 31.332031 C 301.433594 31.761719 302.21875 32.234375 302.980469 32.742188 C 303.742188 33.25 304.476562 33.796875 305.1875 34.375 C 305.894531 34.957031 306.570312 35.574219 307.21875 36.21875 C 307.867188 36.867188 308.480469 37.546875 309.0625 38.253906 C 309.644531 38.960938 310.1875 39.695312 310.699219 40.457031 C 311.207031 41.21875 311.675781 42.003906 312.109375 42.8125 C 312.539062 43.621094 312.929688 44.445312 313.28125 45.292969 C 313.632812 46.140625 313.941406 47 314.207031 47.878906 C 314.472656 48.753906 314.695312 49.640625 314.875 50.539062 C 315.050781 51.4375 315.1875 52.34375 315.277344 53.253906 C 315.367188 54.164062 315.410156 55.078125 315.410156 55.996094 Z M 315.410156 55.996094 " fill-opacity="1" fill-rule="nonzero"/></g><g clip-path="url(#a756764b87)"><path fill="#ffffff" d="M 351.695312 111.929688 C 351.695312 112.847656 351.648438 113.761719 351.558594 114.671875 C 351.46875 115.585938 351.335938 116.488281 351.15625 117.386719 C 350.976562 118.285156 350.753906 119.171875 350.488281 120.050781 C 350.222656 120.925781 349.914062 121.789062 349.566406 122.632812 C 349.214844 123.480469 348.824219 124.308594 348.390625 125.113281 C 347.960938 125.921875 347.488281 126.707031 346.980469 127.46875 C 346.472656 128.230469 345.925781 128.964844 345.347656 129.671875 C 344.765625 130.382812 344.152344 131.058594 343.503906 131.707031 C 342.855469 132.355469 342.175781 132.96875 341.46875 133.550781 C 340.761719 134.132812 340.027344 134.675781 339.265625 135.183594 C 338.503906 135.695312 337.71875 136.164062 336.910156 136.597656 C 336.101562 137.027344 335.277344 137.417969 334.429688 137.769531 C 333.582031 138.121094 332.722656 138.429688 331.84375 138.695312 C 330.96875 138.960938 330.082031 139.183594 329.183594 139.359375 C 328.285156 139.539062 327.378906 139.671875 326.46875 139.761719 C 325.558594 139.851562 324.644531 139.898438 323.726562 139.898438 C 322.8125 139.898438 321.898438 139.851562 320.984375 139.761719 C 320.074219 139.671875 319.167969 139.539062 318.269531 139.359375 C 317.375 139.183594 316.484375 138.960938 315.609375 138.695312 C 314.734375 138.429688 313.871094 138.121094 313.023438 137.769531 C 312.179688 137.417969 311.351562 137.027344 310.542969 136.597656 C 309.734375 136.164062 308.953125 135.695312 308.191406 135.183594 C 307.429688 134.675781 306.695312 134.132812 305.984375 133.550781 C 305.277344 132.96875 304.601562 132.355469 303.953125 131.707031 C 303.304688 131.058594 302.691406 130.382812 302.109375 129.671875 C 301.527344 128.964844 300.984375 128.230469 300.472656 127.46875 C 299.964844 126.707031 299.496094 125.921875 299.0625 125.113281 C 298.632812 124.308594 298.238281 123.480469 297.890625 122.632812 C 297.539062 121.789062 297.230469 120.925781 296.964844 120.050781 C 296.699219 119.171875 296.476562 118.285156 296.296875 117.386719 C 296.121094 116.488281 295.984375 115.585938 295.894531 114.671875 C 295.804688 113.761719 295.761719 112.847656 295.761719 111.929688 C 295.761719 111.015625 295.804688 110.101562 295.894531 109.191406 C 295.984375 108.277344 296.121094 107.375 296.296875 106.476562 C 296.476562 105.578125 296.699219 104.691406 296.964844 103.8125 C 297.230469 102.9375 297.539062 102.074219 297.890625 101.230469 C 298.238281 100.382812 298.632812 99.554688 299.0625 98.75 C 299.496094 97.941406 299.964844 97.15625 300.472656 96.394531 C 300.984375 95.632812 301.527344 94.898438 302.109375 94.191406 C 302.691406 93.480469 303.304688 92.804688 303.953125 92.15625 C 304.601562 91.507812 305.277344 90.894531 305.984375 90.3125 C 306.695312 89.730469 307.429688 89.1875 308.191406 88.679688 C 308.953125 88.167969 309.734375 87.699219 310.542969 87.265625 C 311.351562 86.835938 312.179688 86.445312 313.023438 86.09375 C 313.871094 85.742188 314.734375 85.433594 315.609375 85.167969 C 316.484375 84.902344 317.375 84.679688 318.269531 84.503906 C 319.167969 84.324219 320.074219 84.1875 320.984375 84.101562 C 321.898438 84.011719 322.8125 83.964844 323.726562 83.964844 C 324.644531 83.964844 325.558594 84.011719 326.46875 84.101562 C 327.378906 84.1875 328.285156 84.324219 329.183594 84.503906 C 330.082031 84.679688 330.96875 84.902344 331.847656 85.167969 C 332.722656 85.433594 333.582031 85.742188 334.429688 86.09375 C 335.277344 86.445312 336.101562 86.835938 336.910156 87.265625 C 337.71875 87.699219 338.503906 88.167969 339.265625 88.679688 C 340.027344 89.1875 340.761719 89.730469 341.46875 90.3125 C 342.175781 90.894531 342.855469 91.507812 343.503906 92.15625 C 344.152344 92.804688 344.765625 93.480469 345.347656 94.191406 C 345.925781 94.898438 346.472656 95.632812 346.980469 96.394531 C 347.488281 97.15625 347.960938 97.941406 348.390625 98.75 C 348.824219 99.554688 349.214844 100.382812 349.566406 101.230469 C 349.914062 102.074219 350.222656 102.9375 350.488281 103.8125 C 350.753906 104.691406 350.976562 105.578125 351.15625 106.476562 C 351.335938 107.375 351.46875 108.277344 351.558594 109.191406 C 351.648438 110.101562 351.695312 111.015625 351.695312 111.929688 Z M 351.695312 111.929688 " fill-opacity="1" fill-rule="nonzero"/></g><g fill="#029053" fill-opacity="1"><g transform="translate(6.140018, 425.096649)"><g><path d="M 23.390625 -32.6875 L 27.25 -32.6875 L 16.984375 -16.0625 L 28.953125 1.09375 L 24.96875 1.09375 L 15.09375 -12.984375 L 6.40625 1.09375 L 3.515625 1.09375 L 3.515625 -32.6875 L 6.796875 -32.6875 L 6.796875 -5.796875 Z M 23.390625 -32.6875 "/></g></g></g><g fill="#029053" fill-opacity="1"><g transform="translate(38.607882, 425.096649)"><g><path d="M 23.828125 -14.921875 L 23.828125 -11.625 L 6.796875 -11.625 L 6.796875 -2.1875 L 23.828125 -2.1875 L 23.828125 1.09375 L 3.515625 1.09375 L 3.515625 -32.90625 L 23.828125 -32.90625 L 23.828125 -29.609375 L 6.796875 -29.609375 L 6.796875 -14.921875 Z M 23.828125 -14.921875 "/></g></g></g><g fill="#029053" fill-opacity="1"><g transform="translate(65.898443, 425.096649)"><g><path d="M 23.828125 -14.921875 L 23.828125 -11.625 L 6.796875 -11.625 L 6.796875 -2.1875 L 23.828125 -2.1875 L 23.828125 1.09375 L 3.515625 1.09375 L 3.515625 -32.90625 L 23.828125 -32.90625 L 23.828125 -29.609375 L 6.796875 -29.609375 L 6.796875 -14.921875 Z M 23.828125 -14.921875 "/></g></g></g><g fill="#029053" fill-opacity="1"><g transform="translate(93.189004, 425.096649)"><g><path d="M 6.796875 1.09375 L 3.515625 1.09375 L 3.515625 -32.6875 L 6.40625 -32.6875 L 24.5625 -5.4375 L 24.5625 -32.6875 L 27.859375 -32.6875 L 27.859375 1.09375 L 24.96875 1.09375 L 6.796875 -26.15625 Z M 6.796875 1.09375 "/></g></g></g><g fill="#029053" fill-opacity="1"><g transform="translate(124.559987, 425.096649)"><g/></g></g><g fill="#029053" fill-opacity="1"><g transform="translate(146.497737, 425.096649)"><g><path d="M 32.03125 -4.171875 C 30.539062 -2.535156 28.769531 -1.25 26.71875 -0.3125 C 24.644531 0.625 22.421875 1.09375 20.046875 1.09375 C 17.765625 1.09375 15.613281 0.640625 13.59375 -0.265625 C 11.582031 -1.140625 9.832031 -2.351562 8.34375 -3.90625 C 6.84375 -5.425781 5.671875 -7.222656 4.828125 -9.296875 C 3.953125 -11.347656 3.515625 -13.539062 3.515625 -15.875 C 3.515625 -18.21875 3.953125 -20.429688 4.828125 -22.515625 C 5.671875 -24.554688 6.84375 -26.351562 8.34375 -27.90625 C 9.832031 -29.425781 11.582031 -30.640625 13.59375 -31.546875 C 15.613281 -32.421875 17.765625 -32.859375 20.046875 -32.859375 C 22.421875 -32.859375 24.644531 -32.390625 26.71875 -31.453125 C 28.789062 -30.492188 30.585938 -29.191406 32.109375 -27.546875 L 32.8125 -26.765625 L 30.5 -24.4375 L 29.703125 -25.265625 C 28.472656 -26.585938 27.039062 -27.644531 25.40625 -28.4375 C 23.769531 -29.195312 21.984375 -29.578125 20.046875 -29.578125 C 18.234375 -29.578125 16.523438 -29.222656 14.921875 -28.515625 C 13.304688 -27.785156 11.898438 -26.804688 10.703125 -25.578125 C 9.503906 -24.347656 8.554688 -22.898438 7.859375 -21.234375 C 7.148438 -19.566406 6.796875 -17.78125 6.796875 -15.875 C 6.796875 -13.976562 7.148438 -12.195312 7.859375 -10.53125 C 8.554688 -8.863281 9.503906 -7.414062 10.703125 -6.1875 C 11.898438 -4.957031 13.304688 -3.992188 14.921875 -3.296875 C 16.523438 -2.554688 18.234375 -2.1875 20.046875 -2.1875 C 21.953125 -2.1875 23.722656 -2.566406 25.359375 -3.328125 C 26.992188 -4.066406 28.425781 -5.09375 29.65625 -6.40625 L 30.453125 -7.28125 L 32.78125 -4.953125 Z M 32.03125 -4.171875 "/></g></g></g><g fill="#029053" fill-opacity="1"><g transform="translate(181.598093, 425.096649)"><g><path d="M 6.796875 -11.890625 C 6.796875 -10.515625 7.015625 -9.242188 7.453125 -8.078125 C 7.867188 -6.878906 8.484375 -5.851562 9.296875 -5 C 10.085938 -4.125 11.054688 -3.4375 12.203125 -2.9375 C 13.335938 -2.4375 14.609375 -2.1875 16.015625 -2.1875 C 17.421875 -2.1875 18.691406 -2.4375 19.828125 -2.9375 C 20.941406 -3.4375 21.910156 -4.125 22.734375 -5 C 23.515625 -5.851562 24.125 -6.878906 24.5625 -8.078125 C 24.976562 -9.242188 25.1875 -10.515625 25.1875 -11.890625 L 25.1875 -33 L 28.46875 -33 L 28.46875 -11.890625 C 28.46875 -10.046875 28.175781 -8.332031 27.59375 -6.75 C 26.976562 -5.175781 26.128906 -3.816406 25.046875 -2.671875 C 23.941406 -1.503906 22.628906 -0.582031 21.109375 0.09375 C 19.554688 0.757812 17.859375 1.09375 16.015625 1.09375 C 14.140625 1.09375 12.441406 0.757812 10.921875 0.09375 C 9.367188 -0.582031 8.050781 -1.503906 6.96875 -2.671875 C 5.863281 -3.816406 5.019531 -5.175781 4.4375 -6.75 C 3.820312 -8.332031 3.515625 -10.046875 3.515625 -11.890625 L 3.515625 -33 L 6.796875 -33 Z M 6.796875 -11.890625 "/></g></g></g><g fill="#029053" fill-opacity="1"><g transform="translate(213.583335, 425.096649)"><g><path d="M 3.515625 -32.78125 L 6.796875 -32.78125 L 6.796875 -2.1875 L 25.53125 -2.1875 L 25.53125 1.09375 L 3.515625 1.09375 Z M 3.515625 -32.78125 "/></g></g></g><g fill="#029053" fill-opacity="1"><g transform="translate(236.617813, 425.096649)"><g><path d="M 3.515625 -32.8125 L 30.28125 -32.8125 L 30.28125 -29.53125 L 18.5625 -29.53125 L 18.5625 1.09375 L 15.265625 1.09375 L 15.265625 -29.53125 L 3.515625 -29.53125 Z M 3.515625 -32.8125 "/></g></g></g><g fill="#029053" fill-opacity="1"><g transform="translate(270.401939, 425.096649)"><g><path d="M 6.796875 -11.890625 C 6.796875 -10.515625 7.015625 -9.242188 7.453125 -8.078125 C 7.867188 -6.878906 8.484375 -5.851562 9.296875 -5 C 10.085938 -4.125 11.054688 -3.4375 12.203125 -2.9375 C 13.335938 -2.4375 14.609375 -2.1875 16.015625 -2.1875 C 17.421875 -2.1875 18.691406 -2.4375 19.828125 -2.9375 C 20.941406 -3.4375 21.910156 -4.125 22.734375 -5 C 23.515625 -5.851562 24.125 -6.878906 24.5625 -8.078125 C 24.976562 -9.242188 25.1875 -10.515625 25.1875 -11.890625 L 25.1875 -33 L 28.46875 -33 L 28.46875 -11.890625 C 28.46875 -10.046875 28.175781 -8.332031 27.59375 -6.75 C 26.976562 -5.175781 26.128906 -3.816406 25.046875 -2.671875 C 23.941406 -1.503906 22.628906 -0.582031 21.109375 0.09375 C 19.554688 0.757812 17.859375 1.09375 16.015625 1.09375 C 14.140625 1.09375 12.441406 0.757812 10.921875 0.09375 C 9.367188 -0.582031 8.050781 -1.503906 6.96875 -2.671875 C 5.863281 -3.816406 5.019531 -5.175781 4.4375 -6.75 C 3.820312 -8.332031 3.515625 -10.046875 3.515625 -11.890625 L 3.515625 -33 L 6.796875 -33 Z M 6.796875 -11.890625 "/></g></g></g><g fill="#029053" fill-opacity="1"><g transform="translate(302.38718, 425.096649)"><g><path d="M 12.015625 -32.8125 C 13.660156 -32.8125 15.195312 -32.550781 16.625 -32.03125 C 18.0625 -31.5 19.304688 -30.753906 20.359375 -29.796875 C 21.410156 -28.796875 22.242188 -27.609375 22.859375 -26.234375 C 23.472656 -24.859375 23.78125 -23.320312 23.78125 -21.625 C 23.78125 -19.550781 23.28125 -17.632812 22.28125 -15.875 C 21.257812 -14.125 19.828125 -12.78125 17.984375 -11.84375 L 26.890625 1.09375 L 22.90625 1.09375 L 14.734375 -10.75 C 13.953125 -10.570312 13.046875 -10.484375 12.015625 -10.484375 L 6.796875 -10.484375 L 6.796875 1.09375 L 3.515625 1.09375 L 3.515625 -32.8125 Z M 6.796875 -13.78125 L 12.015625 -13.78125 C 13.222656 -13.78125 14.335938 -13.953125 15.359375 -14.296875 C 16.378906 -14.648438 17.269531 -15.175781 18.03125 -15.875 C 18.789062 -16.550781 19.390625 -17.375 19.828125 -18.34375 C 20.265625 -19.300781 20.484375 -20.394531 20.484375 -21.625 C 20.484375 -22.851562 20.265625 -23.96875 19.828125 -24.96875 C 19.390625 -25.925781 18.789062 -26.742188 18.03125 -27.421875 C 17.238281 -28.097656 16.332031 -28.625 15.3125 -29 C 14.289062 -29.351562 13.191406 -29.53125 12.015625 -29.53125 L 6.796875 -29.53125 Z M 6.796875 -13.78125 "/></g></g></g><g fill="#029053" fill-opacity="1"><g transform="translate(332.749026, 425.096649)"><g><path d="M 23.828125 -14.921875 L 23.828125 -11.625 L 6.796875 -11.625 L 6.796875 -2.1875 L 23.828125 -2.1875 L 23.828125 1.09375 L 3.515625 1.09375 L 3.515625 -32.90625 L 23.828125 -32.90625 L 23.828125 -29.609375 L 6.796875 -29.609375 L 6.796875 -14.921875 Z M 23.828125 -14.921875 "/></g></g></g></g></g></svg>