<svg width="1200" height="900" viewBox="0 0 1200 900" fill="none" xmlns="http://www.w3.org/2000/svg" role="img" aria-labelledby="title desc">
  <title id="title">Cross-border logistics illustration</title>
  <desc id="desc">A package moving across regions with route lines and location pins.</desc>
  <rect width="1200" height="900" fill="#0F172A"/>
  <circle cx="170" cy="160" r="140" fill="#F59E0B" fill-opacity="0.15"/>
  <circle cx="1030" cy="760" r="180" fill="#F59E0B" fill-opacity="0.15"/>

  <g opacity="0.9">
    <path d="M170 680C330 540 500 700 660 560C790 446 932 420 1050 500" stroke="#FBBF24" stroke-width="8" stroke-linecap="round" stroke-dasharray="18 18"/>
    <circle cx="170" cy="680" r="14" fill="#FBBF24"/>
    <circle cx="660" cy="560" r="14" fill="#FBBF24"/>
    <circle cx="1050" cy="500" r="14" fill="#FBBF24"/>
  </g>

  <g transform="translate(460 260)">
    <rect x="0" y="80" width="280" height="190" rx="20" fill="#1E293B" stroke="#334155" stroke-width="4"/>
    <path d="M0 120L140 40L280 120" fill="#334155"/>
    <path d="M0 120L140 40L280 120" stroke="#475569" stroke-width="4"/>
    <path d="M140 40V160" stroke="#64748B" stroke-width="4"/>
    <path d="M0 120L140 200L280 120" stroke="#64748B" stroke-width="4"/>
    <rect x="122" y="104" width="36" height="52" rx="6" fill="#F59E0B"/>
  </g>

  <g>
    <path d="M210 460C210 424 239 395 275 395C311 395 340 424 340 460C340 519 275 578 275 578C275 578 210 519 210 460Z" fill="#F59E0B"/>
    <circle cx="275" cy="460" r="24" fill="#0F172A"/>
  </g>
  <g>
    <path d="M860 300C860 264 889 235 925 235C961 235 990 264 990 300C990 359 925 418 925 418C925 418 860 359 860 300Z" fill="#F59E0B"/>
    <circle cx="925" cy="300" r="24" fill="#0F172A"/>
  </g>

  <g transform="translate(145 610)">
    <rect x="0" y="22" width="150" height="76" rx="12" fill="#1E293B" stroke="#334155" stroke-width="4"/>
    <rect x="122" y="36" width="40" height="44" rx="8" fill="#334155"/>
    <circle cx="36" cy="104" r="14" fill="#64748B"/>
    <circle cx="120" cy="104" r="14" fill="#64748B"/>
  </g>

  <text x="600" y="840" text-anchor="middle" fill="#94A3B8" font-family="Arial, sans-serif" font-size="34" letter-spacing="2">CROSS-BORDER LOGISTICS</text>
</svg>
